<svg width="130" height="32" viewBox="0 0 130 32" fill="none" xmlns="http://www.w3.org/2000/svg">
<path d="M125 0H31V32H125C127.761 32 130 29.7614 130 27V5C130 2.23858 127.761 0 125 0Z" fill="#0F1418"/>
<path d="M31 0H5C2.23858 0 0 2.23858 0 5V27C0 29.7614 2.23858 32 5 32H31V0Z" fill="white"/>
<path d="M125 0H5C2.23858 0 0 2.23858 0 5V27C0 29.7614 2.23858 32 5 32H125C127.761 32 130 29.7614 130 27V5C130 2.23858 127.761 0 125 0Z" fill="url(#paint0_linear_69_13)"/>
<path d="M43.7969 9.625H45.2578L48.9844 18.8984L52.7031 9.625H54.1719L49.5469 21H48.4062L43.7969 9.625ZM43.3203 9.625H44.6094L44.8203 16.5625V21H43.3203V9.625ZM53.3516 9.625H54.6406V21H53.1406V16.5625L53.3516 9.625ZM62.0547 19.5547V15.2031C62.0547 14.8698 61.987 14.5807 61.8516 14.3359C61.7214 14.0859 61.5234 13.8932 61.2578 13.7578C60.9922 13.6224 60.6641 13.5547 60.2734 13.5547C59.9089 13.5547 59.5885 13.6172 59.3125 13.7422C59.0417 13.8672 58.8281 14.0312 58.6719 14.2344C58.5208 14.4375 58.4453 14.6562 58.4453 14.8906H57C57 14.5885 57.0781 14.2891 57.2344 13.9922C57.3906 13.6953 57.6146 13.4271 57.9062 13.1875C58.2031 12.9427 58.5573 12.75 58.9688 12.6094C59.3854 12.4635 59.849 12.3906 60.3594 12.3906C60.974 12.3906 61.5156 12.4948 61.9844 12.7031C62.4583 12.9115 62.8281 13.2266 63.0938 13.6484C63.3646 14.0651 63.5 14.5885 63.5 15.2188V19.1562C63.5 19.4375 63.5234 19.737 63.5703 20.0547C63.6224 20.3724 63.6979 20.6458 63.7969 20.875V21H62.2891C62.2161 20.8333 62.1589 20.612 62.1172 20.3359C62.0755 20.0547 62.0547 19.7943 62.0547 19.5547ZM62.3047 15.875L62.3203 16.8906H60.8594C60.4479 16.8906 60.0807 16.9245 59.7578 16.9922C59.4349 17.0547 59.1641 17.151 58.9453 17.2812C58.7266 17.4115 58.5599 17.5755 58.4453 17.7734C58.3307 17.9661 58.2734 18.1927 58.2734 18.4531C58.2734 18.7188 58.3333 18.9609 58.4531 19.1797C58.5729 19.3984 58.7526 19.5729 58.9922 19.7031C59.237 19.8281 59.5365 19.8906 59.8906 19.8906C60.3333 19.8906 60.724 19.7969 61.0625 19.6094C61.401 19.4219 61.6693 19.1927 61.8672 18.9219C62.0703 18.651 62.1797 18.388 62.1953 18.1328L62.8125 18.8281C62.776 19.0469 62.6771 19.2891 62.5156 19.5547C62.3542 19.8203 62.138 20.0755 61.8672 20.3203C61.6016 20.5599 61.2839 20.7604 60.9141 20.9219C60.5495 21.0781 60.138 21.1562 59.6797 21.1562C59.1068 21.1562 58.6042 21.0443 58.1719 20.8203C57.7448 20.5964 57.4115 20.2969 57.1719 19.9219C56.9375 19.5417 56.8203 19.1172 56.8203 18.6484C56.8203 18.1953 56.9089 17.7969 57.0859 17.4531C57.263 17.1042 57.5182 16.8151 57.8516 16.5859C58.1849 16.3516 58.5859 16.1745 59.0547 16.0547C59.5234 15.9349 60.0469 15.875 60.625 15.875H62.3047ZM69.3125 12.5469V13.6562H64.7422V12.5469H69.3125ZM66.2891 10.4922H67.7344V18.9062C67.7344 19.1927 67.7786 19.4089 67.8672 19.5547C67.9557 19.7005 68.0703 19.7969 68.2109 19.8438C68.3516 19.8906 68.5026 19.9141 68.6641 19.9141C68.7839 19.9141 68.9089 19.9036 69.0391 19.8828C69.1745 19.8568 69.276 19.8359 69.3438 19.8203L69.3516 21C69.237 21.0365 69.0859 21.0703 68.8984 21.1016C68.7161 21.138 68.4948 21.1562 68.2344 21.1562C67.8802 21.1562 67.5547 21.0859 67.2578 20.9453C66.9609 20.8047 66.724 20.5703 66.5469 20.2422C66.375 19.9089 66.2891 19.4609 66.2891 18.8984V10.4922ZM74.5156 21.1562C73.9271 21.1562 73.3932 21.0573 72.9141 20.8594C72.4401 20.6562 72.0312 20.3724 71.6875 20.0078C71.349 19.6432 71.0885 19.2109 70.9062 18.7109C70.724 18.2109 70.6328 17.6641 70.6328 17.0703V16.7422C70.6328 16.0547 70.7344 15.4427 70.9375 14.9062C71.1406 14.3646 71.4167 13.9062 71.7656 13.5312C72.1146 13.1562 72.5104 12.8724 72.9531 12.6797C73.3958 12.487 73.8542 12.3906 74.3281 12.3906C74.9323 12.3906 75.4531 12.4948 75.8906 12.7031C76.3333 12.9115 76.6953 13.2031 76.9766 13.5781C77.2578 13.9479 77.4661 14.3854 77.6016 14.8906C77.737 15.3906 77.8047 15.9375 77.8047 16.5312V17.1797H71.4922V16H76.3594V15.8906C76.3385 15.5156 76.2604 15.151 76.125 14.7969C75.9948 14.4427 75.7865 14.151 75.5 13.9219C75.2135 13.6927 74.8229 13.5781 74.3281 13.5781C74 13.5781 73.6979 13.6484 73.4219 13.7891C73.1458 13.9245 72.9089 14.1276 72.7109 14.3984C72.513 14.6693 72.3594 15 72.25 15.3906C72.1406 15.7812 72.0859 16.2318 72.0859 16.7422V17.0703C72.0859 17.4714 72.1406 17.849 72.25 18.2031C72.3646 18.5521 72.5286 18.8594 72.7422 19.125C72.9609 19.3906 73.224 19.599 73.5312 19.75C73.8438 19.901 74.1979 19.9766 74.5938 19.9766C75.1042 19.9766 75.5365 19.8724 75.8906 19.6641C76.2448 19.4557 76.5547 19.1771 76.8203 18.8281L77.6953 19.5234C77.513 19.7995 77.2812 20.0625 77 20.3125C76.7188 20.5625 76.3724 20.7656 75.9609 20.9219C75.5547 21.0781 75.0729 21.1562 74.5156 21.1562ZM80.9375 13.875V21H79.4922V12.5469H80.8984L80.9375 13.875ZM83.5781 12.5L83.5703 13.8438C83.4505 13.8177 83.3359 13.8021 83.2266 13.7969C83.1224 13.7865 83.0026 13.7812 82.8672 13.7812C82.5339 13.7812 82.2396 13.8333 81.9844 13.9375C81.7292 14.0417 81.513 14.1875 81.3359 14.375C81.1589 14.5625 81.0182 14.7865 80.9141 15.0469C80.8151 15.3021 80.75 15.5833 80.7188 15.8906L80.3125 16.125C80.3125 15.6146 80.362 15.1354 80.4609 14.6875C80.5651 14.2396 80.724 13.8438 80.9375 13.5C81.151 13.151 81.4219 12.8802 81.75 12.6875C82.0833 12.4896 82.4792 12.3906 82.9375 12.3906C83.0417 12.3906 83.1615 12.4036 83.2969 12.4297C83.4323 12.4505 83.526 12.474 83.5781 12.5ZM86.4844 12.5469V21H85.0312V12.5469H86.4844ZM84.9219 10.3047C84.9219 10.0703 84.9922 9.8724 85.1328 9.71094C85.2786 9.54948 85.4922 9.46875 85.7734 9.46875C86.0495 9.46875 86.2604 9.54948 86.4062 9.71094C86.5573 9.8724 86.6328 10.0703 86.6328 10.3047C86.6328 10.5286 86.5573 10.7214 86.4062 10.8828C86.2604 11.0391 86.0495 11.1172 85.7734 11.1172C85.4922 11.1172 85.2786 11.0391 85.1328 10.8828C84.9922 10.7214 84.9219 10.5286 84.9219 10.3047ZM93.7891 19.5547V15.2031C93.7891 14.8698 93.7214 14.5807 93.5859 14.3359C93.4557 14.0859 93.2578 13.8932 92.9922 13.7578C92.7266 13.6224 92.3984 13.5547 92.0078 13.5547C91.6432 13.5547 91.3229 13.6172 91.0469 13.7422C90.776 13.8672 90.5625 14.0312 90.4062 14.2344C90.2552 14.4375 90.1797 14.6562 90.1797 14.8906H88.7344C88.7344 14.5885 88.8125 14.2891 88.9688 13.9922C89.125 13.6953 89.349 13.4271 89.6406 13.1875C89.9375 12.9427 90.2917 12.75 90.7031 12.6094C91.1198 12.4635 91.5833 12.3906 92.0938 12.3906C92.7083 12.3906 93.25 12.4948 93.7188 12.7031C94.1927 12.9115 94.5625 13.2266 94.8281 13.6484C95.099 14.0651 95.2344 14.5885 95.2344 15.2188V19.1562C95.2344 19.4375 95.2578 19.737 95.3047 20.0547C95.3568 20.3724 95.4323 20.6458 95.5312 20.875V21H94.0234C93.9505 20.8333 93.8932 20.612 93.8516 20.3359C93.8099 20.0547 93.7891 19.7943 93.7891 19.5547ZM94.0391 15.875L94.0547 16.8906H92.5938C92.1823 16.8906 91.8151 16.9245 91.4922 16.9922C91.1693 17.0547 90.8984 17.151 90.6797 17.2812C90.4609 17.4115 90.2943 17.5755 90.1797 17.7734C90.0651 17.9661 90.0078 18.1927 90.0078 18.4531C90.0078 18.7188 90.0677 18.9609 90.1875 19.1797C90.3073 19.3984 90.487 19.5729 90.7266 19.7031C90.9714 19.8281 91.2708 19.8906 91.625 19.8906C92.0677 19.8906 92.4583 19.7969 92.7969 19.6094C93.1354 19.4219 93.4036 19.1927 93.6016 18.9219C93.8047 18.651 93.9141 18.388 93.9297 18.1328L94.5469 18.8281C94.5104 19.0469 94.4115 19.2891 94.25 19.5547C94.0885 19.8203 93.8724 20.0755 93.6016 20.3203C93.3359 20.5599 93.0182 20.7604 92.6484 20.9219C92.2839 21.0781 91.8724 21.1562 91.4141 21.1562C90.8411 21.1562 90.3385 21.0443 89.9062 20.8203C89.4792 20.5964 89.1458 20.2969 88.9062 19.9219C88.6719 19.5417 88.5547 19.1172 88.5547 18.6484C88.5547 18.1953 88.6432 17.7969 88.8203 17.4531C88.9974 17.1042 89.2526 16.8151 89.5859 16.5859C89.9193 16.3516 90.3203 16.1745 90.7891 16.0547C91.2578 15.9349 91.7812 15.875 92.3594 15.875H94.0391ZM99.0781 9V21H97.625V9H99.0781ZM112.094 9.625H113.594V17.3203C113.594 18.1745 113.404 18.8854 113.023 19.4531C112.643 20.0208 112.138 20.4479 111.508 20.7344C110.883 21.0156 110.203 21.1562 109.469 21.1562C108.698 21.1562 108 21.0156 107.375 20.7344C106.755 20.4479 106.263 20.0208 105.898 19.4531C105.539 18.8854 105.359 18.1745 105.359 17.3203V9.625H106.852V17.3203C106.852 17.9141 106.961 18.4036 107.18 18.7891C107.398 19.1745 107.703 19.4609 108.094 19.6484C108.49 19.8359 108.948 19.9297 109.469 19.9297C109.995 19.9297 110.453 19.8359 110.844 19.6484C111.24 19.4609 111.547 19.1745 111.766 18.7891C111.984 18.4036 112.094 17.9141 112.094 17.3203V9.625ZM117.578 9.625V21H116.07V9.625H117.578Z" fill="white"/>
<path d="M3 17.9998V6.00232L12.375 12.0011V16.0002L6.125 12.0011V19.9994L3 17.9998Z" fill="#00B0FF"/>
<path d="M12.375 12.0011L21.75 6.00232V17.9998L15.5 21.999L12.375 19.9994L18.625 16.0002V12.0011L12.375 16.0002V12.0011Z" fill="#0081CB"/>
<path d="M12.375 19.9994V23.9985L18.625 27.9977V23.9985L12.375 19.9994Z" fill="#00B0FF"/>
<path d="M18.625 27.9977L28 21.999V14.0006L24.875 16.0002V19.9994L18.625 23.9985V27.9977ZM24.875 12.0011V8.0019L28 6.00232V10.0015L24.875 12.0011Z" fill="#0081CB"/>
<defs>
<linearGradient id="paint0_linear_69_13" x1="0" y1="0" x2="0" y2="32" gradientUnits="userSpaceOnUse">
<stop stop-color="#BBBBBB" stop-opacity="0.1"/>
<stop offset="1" stop-opacity="0.1"/>
</linearGradient>
</defs>
</svg>
